<mxfile host="app.diagrams.net" modified="2020-08-28T07:09:39.944Z" agent="5.0 (Windows)" etag="PEpyjuuDx319oLp3pkWj" version="13.6.5" type="github">
  <diagram id="sN7K6ajZXDKRuchwXWqP" name="Page-1">
    <mxGraphModel dx="1038" dy="547" grid="1" gridSize="10" guides="1" tooltips="1" connect="1" arrows="1" fold="1" page="1" pageScale="1" pageWidth="1169" pageHeight="827" math="0" shadow="0">
      <root>
        <mxCell id="0" />
        <mxCell id="1" parent="0" />
        <mxCell id="PhGM9v6G_7sxKOWtgpyX-1" value="Contract Management" style="swimlane;startSize=23;" vertex="1" parent="1">
          <mxGeometry x="29" y="10" width="1110" height="800" as="geometry" />
        </mxCell>
        <mxCell id="PhGM9v6G_7sxKOWtgpyX-2" value="Start" style="rounded=1;whiteSpace=wrap;html=1;" vertex="1" parent="PhGM9v6G_7sxKOWtgpyX-1">
          <mxGeometry x="60" y="60" width="120" height="40" as="geometry" />
        </mxCell>
        <mxCell id="PhGM9v6G_7sxKOWtgpyX-3" value="SCM prepares contract document (14 days after notification of award)" style="rounded=0;whiteSpace=wrap;html=1;" vertex="1" parent="PhGM9v6G_7sxKOWtgpyX-1">
          <mxGeometry x="60" y="150" width="120" height="60" as="geometry" />
        </mxCell>
        <mxCell id="PhGM9v6G_7sxKOWtgpyX-5" value="Corporation Secretary(SC) reviews draft" style="whiteSpace=wrap;html=1;rounded=0;" vertex="1" parent="PhGM9v6G_7sxKOWtgpyX-1">
          <mxGeometry x="60" y="250" width="120" height="60" as="geometry" />
        </mxCell>
        <mxCell id="PhGM9v6G_7sxKOWtgpyX-6" value="" style="edgeStyle=orthogonalEdgeStyle;rounded=0;orthogonalLoop=1;jettySize=auto;html=1;" edge="1" parent="PhGM9v6G_7sxKOWtgpyX-1" source="PhGM9v6G_7sxKOWtgpyX-3" target="PhGM9v6G_7sxKOWtgpyX-5">
          <mxGeometry relative="1" as="geometry" />
        </mxCell>
        <mxCell id="PhGM9v6G_7sxKOWtgpyX-9" value="SCM forwards contract to consultant for review" style="whiteSpace=wrap;html=1;rounded=0;" vertex="1" parent="PhGM9v6G_7sxKOWtgpyX-1">
          <mxGeometry x="60" y="440" width="120" height="60" as="geometry" />
        </mxCell>
        <mxCell id="PhGM9v6G_7sxKOWtgpyX-11" value="Contract reviews and forwards it back to SCM/CS " style="whiteSpace=wrap;html=1;rounded=0;" vertex="1" parent="PhGM9v6G_7sxKOWtgpyX-1">
          <mxGeometry x="60" y="540" width="120" height="60" as="geometry" />
        </mxCell>
        <mxCell id="PhGM9v6G_7sxKOWtgpyX-12" value="" style="edgeStyle=orthogonalEdgeStyle;rounded=0;orthogonalLoop=1;jettySize=auto;html=1;" edge="1" parent="PhGM9v6G_7sxKOWtgpyX-1" source="PhGM9v6G_7sxKOWtgpyX-9" target="PhGM9v6G_7sxKOWtgpyX-11">
          <mxGeometry relative="1" as="geometry" />
        </mxCell>
        <mxCell id="PhGM9v6G_7sxKOWtgpyX-13" value="CEO Approval" style="whiteSpace=wrap;html=1;rounded=0;" vertex="1" parent="PhGM9v6G_7sxKOWtgpyX-1">
          <mxGeometry x="60" y="640" width="120" height="60" as="geometry" />
        </mxCell>
        <mxCell id="PhGM9v6G_7sxKOWtgpyX-14" value="" style="edgeStyle=orthogonalEdgeStyle;rounded=0;orthogonalLoop=1;jettySize=auto;html=1;" edge="1" parent="PhGM9v6G_7sxKOWtgpyX-1" source="PhGM9v6G_7sxKOWtgpyX-11" target="PhGM9v6G_7sxKOWtgpyX-13">
          <mxGeometry relative="1" as="geometry" />
        </mxCell>
        <mxCell id="PhGM9v6G_7sxKOWtgpyX-25" value="Approved report submitted to IAC to inspect completion of assignment" style="whiteSpace=wrap;html=1;rounded=0;" vertex="1" parent="PhGM9v6G_7sxKOWtgpyX-1">
          <mxGeometry x="480" y="220" width="120" height="60" as="geometry" />
        </mxCell>
        <mxCell id="PhGM9v6G_7sxKOWtgpyX-33" value="Report Approved?" style="rhombus;whiteSpace=wrap;html=1;rounded=0;" vertex="1" parent="PhGM9v6G_7sxKOWtgpyX-1">
          <mxGeometry x="700" y="324" width="80" height="80" as="geometry" />
        </mxCell>
        <mxCell id="PhGM9v6G_7sxKOWtgpyX-37" value="Submit to IAC to inspect completion of assignment" style="whiteSpace=wrap;html=1;rounded=0;" vertex="1" parent="PhGM9v6G_7sxKOWtgpyX-1">
          <mxGeometry x="680" y="460" width="120" height="60" as="geometry" />
        </mxCell>
        <mxCell id="PhGM9v6G_7sxKOWtgpyX-38" value="" style="edgeStyle=orthogonalEdgeStyle;rounded=0;orthogonalLoop=1;jettySize=auto;html=1;" edge="1" parent="PhGM9v6G_7sxKOWtgpyX-1" source="PhGM9v6G_7sxKOWtgpyX-33" target="PhGM9v6G_7sxKOWtgpyX-37">
          <mxGeometry relative="1" as="geometry" />
        </mxCell>
        <mxCell id="PhGM9v6G_7sxKOWtgpyX-39" value="Submit Final report for approval" style="whiteSpace=wrap;html=1;rounded=0;" vertex="1" parent="PhGM9v6G_7sxKOWtgpyX-1">
          <mxGeometry x="680" y="630" width="120" height="60" as="geometry" />
        </mxCell>
        <mxCell id="PhGM9v6G_7sxKOWtgpyX-40" value="" style="edgeStyle=orthogonalEdgeStyle;rounded=0;orthogonalLoop=1;jettySize=auto;html=1;" edge="1" parent="PhGM9v6G_7sxKOWtgpyX-1" source="PhGM9v6G_7sxKOWtgpyX-37" target="PhGM9v6G_7sxKOWtgpyX-39">
          <mxGeometry relative="1" as="geometry" />
        </mxCell>
        <mxCell id="PhGM9v6G_7sxKOWtgpyX-41" value="Report approved?" style="rhombus;whiteSpace=wrap;html=1;rounded=0;" vertex="1" parent="PhGM9v6G_7sxKOWtgpyX-1">
          <mxGeometry x="840" y="200" width="80" height="80" as="geometry" />
        </mxCell>
        <mxCell id="PhGM9v6G_7sxKOWtgpyX-42" value="" style="edgeStyle=orthogonalEdgeStyle;rounded=0;orthogonalLoop=1;jettySize=auto;html=1;" edge="1" parent="PhGM9v6G_7sxKOWtgpyX-1" source="PhGM9v6G_7sxKOWtgpyX-39" target="PhGM9v6G_7sxKOWtgpyX-41">
          <mxGeometry relative="1" as="geometry" />
        </mxCell>
        <mxCell id="PhGM9v6G_7sxKOWtgpyX-31" value="Submission of draft report for the project" style="whiteSpace=wrap;html=1;rounded=0;" vertex="1" parent="PhGM9v6G_7sxKOWtgpyX-1">
          <mxGeometry x="680" y="230" width="120" height="60" as="geometry" />
        </mxCell>
        <mxCell id="PhGM9v6G_7sxKOWtgpyX-32" value="" style="edgeStyle=orthogonalEdgeStyle;rounded=0;orthogonalLoop=1;jettySize=auto;html=1;" edge="1" parent="PhGM9v6G_7sxKOWtgpyX-1" source="PhGM9v6G_7sxKOWtgpyX-25" target="PhGM9v6G_7sxKOWtgpyX-31">
          <mxGeometry relative="1" as="geometry" />
        </mxCell>
        <mxCell id="PhGM9v6G_7sxKOWtgpyX-34" value="" style="edgeStyle=orthogonalEdgeStyle;rounded=0;orthogonalLoop=1;jettySize=auto;html=1;" edge="1" parent="PhGM9v6G_7sxKOWtgpyX-1" source="PhGM9v6G_7sxKOWtgpyX-31" target="PhGM9v6G_7sxKOWtgpyX-33">
          <mxGeometry relative="1" as="geometry" />
        </mxCell>
        <mxCell id="PhGM9v6G_7sxKOWtgpyX-47" value="End" style="rounded=1;whiteSpace=wrap;html=1;" vertex="1" parent="PhGM9v6G_7sxKOWtgpyX-1">
          <mxGeometry x="996" y="490" width="80" height="40" as="geometry" />
        </mxCell>
        <mxCell id="PhGM9v6G_7sxKOWtgpyX-54" value="yes" style="text;html=1;strokeColor=none;fillColor=none;align=center;verticalAlign=middle;whiteSpace=wrap;rounded=0;" vertex="1" parent="PhGM9v6G_7sxKOWtgpyX-1">
          <mxGeometry x="760" y="410" width="40" height="20" as="geometry" />
        </mxCell>
        <mxCell id="PhGM9v6G_7sxKOWtgpyX-56" value="no" style="text;html=1;strokeColor=none;fillColor=none;align=center;verticalAlign=middle;whiteSpace=wrap;rounded=0;" vertex="1" parent="PhGM9v6G_7sxKOWtgpyX-1">
          <mxGeometry x="251" y="310" width="40" height="20" as="geometry" />
        </mxCell>
        <mxCell id="PhGM9v6G_7sxKOWtgpyX-58" value="" style="edgeStyle=orthogonalEdgeStyle;rounded=0;orthogonalLoop=1;jettySize=auto;html=1;entryX=1;entryY=0.5;entryDx=0;entryDy=0;exitX=1;exitY=0.5;exitDx=0;exitDy=0;" edge="1" parent="PhGM9v6G_7sxKOWtgpyX-1" source="PhGM9v6G_7sxKOWtgpyX-33" target="PhGM9v6G_7sxKOWtgpyX-31">
          <mxGeometry relative="1" as="geometry">
            <mxPoint x="850" y="364" as="targetPoint" />
            <Array as="points">
              <mxPoint x="811" y="364" />
              <mxPoint x="811" y="260" />
            </Array>
          </mxGeometry>
        </mxCell>
        <mxCell id="PhGM9v6G_7sxKOWtgpyX-59" value="no" style="text;html=1;strokeColor=none;fillColor=none;align=center;verticalAlign=middle;whiteSpace=wrap;rounded=0;" vertex="1" parent="PhGM9v6G_7sxKOWtgpyX-1">
          <mxGeometry x="810" y="290" width="40" height="20" as="geometry" />
        </mxCell>
        <mxCell id="PhGM9v6G_7sxKOWtgpyX-62" value="yes" style="text;html=1;strokeColor=none;fillColor=none;align=center;verticalAlign=middle;whiteSpace=wrap;rounded=0;" vertex="1" parent="PhGM9v6G_7sxKOWtgpyX-1">
          <mxGeometry x="921" y="210" width="40" height="20" as="geometry" />
        </mxCell>
        <mxCell id="PhGM9v6G_7sxKOWtgpyX-64" value="" style="edgeStyle=orthogonalEdgeStyle;rounded=0;orthogonalLoop=1;jettySize=auto;html=1;entryX=1;entryY=0.5;entryDx=0;entryDy=0;" edge="1" parent="PhGM9v6G_7sxKOWtgpyX-1" source="PhGM9v6G_7sxKOWtgpyX-41" target="PhGM9v6G_7sxKOWtgpyX-39">
          <mxGeometry relative="1" as="geometry">
            <mxPoint x="770" y="240" as="targetPoint" />
          </mxGeometry>
        </mxCell>
        <mxCell id="PhGM9v6G_7sxKOWtgpyX-4" value="" style="endArrow=classic;html=1;exitX=0.5;exitY=1;exitDx=0;exitDy=0;" edge="1" parent="1" source="PhGM9v6G_7sxKOWtgpyX-2">
          <mxGeometry width="50" height="50" relative="1" as="geometry">
            <mxPoint x="100" y="230" as="sourcePoint" />
            <mxPoint x="150" y="160" as="targetPoint" />
          </mxGeometry>
        </mxCell>
        <mxCell id="PhGM9v6G_7sxKOWtgpyX-10" value="" style="edgeStyle=orthogonalEdgeStyle;rounded=0;orthogonalLoop=1;jettySize=auto;html=1;" edge="1" parent="1" source="PhGM9v6G_7sxKOWtgpyX-7" target="PhGM9v6G_7sxKOWtgpyX-9">
          <mxGeometry relative="1" as="geometry" />
        </mxCell>
        <mxCell id="PhGM9v6G_7sxKOWtgpyX-7" value="SCM amends contract in line with CS inputs" style="whiteSpace=wrap;html=1;rounded=0;" vertex="1" parent="1">
          <mxGeometry x="90" y="354" width="120" height="60" as="geometry" />
        </mxCell>
        <mxCell id="PhGM9v6G_7sxKOWtgpyX-8" value="" style="edgeStyle=orthogonalEdgeStyle;rounded=0;orthogonalLoop=1;jettySize=auto;html=1;" edge="1" parent="1" source="PhGM9v6G_7sxKOWtgpyX-5" target="PhGM9v6G_7sxKOWtgpyX-7">
          <mxGeometry relative="1" as="geometry" />
        </mxCell>
        <mxCell id="PhGM9v6G_7sxKOWtgpyX-18" value="" style="edgeStyle=orthogonalEdgeStyle;rounded=0;orthogonalLoop=1;jettySize=auto;html=1;" edge="1" parent="1" source="PhGM9v6G_7sxKOWtgpyX-15" target="PhGM9v6G_7sxKOWtgpyX-17">
          <mxGeometry relative="1" as="geometry" />
        </mxCell>
        <mxCell id="PhGM9v6G_7sxKOWtgpyX-15" value="Signing of the contract" style="whiteSpace=wrap;html=1;rounded=0;" vertex="1" parent="1">
          <mxGeometry x="290" y="650" width="120" height="60" as="geometry" />
        </mxCell>
        <mxCell id="PhGM9v6G_7sxKOWtgpyX-16" value="" style="edgeStyle=orthogonalEdgeStyle;rounded=0;orthogonalLoop=1;jettySize=auto;html=1;" edge="1" parent="1" source="PhGM9v6G_7sxKOWtgpyX-13" target="PhGM9v6G_7sxKOWtgpyX-15">
          <mxGeometry relative="1" as="geometry" />
        </mxCell>
        <mxCell id="PhGM9v6G_7sxKOWtgpyX-20" value="" style="edgeStyle=orthogonalEdgeStyle;rounded=0;orthogonalLoop=1;jettySize=auto;html=1;" edge="1" parent="1" source="PhGM9v6G_7sxKOWtgpyX-17" target="PhGM9v6G_7sxKOWtgpyX-19">
          <mxGeometry relative="1" as="geometry" />
        </mxCell>
        <mxCell id="PhGM9v6G_7sxKOWtgpyX-17" value="A contract Implementation Committee is appointed" style="whiteSpace=wrap;html=1;rounded=0;" vertex="1" parent="1">
          <mxGeometry x="290" y="510" width="120" height="60" as="geometry" />
        </mxCell>
        <mxCell id="PhGM9v6G_7sxKOWtgpyX-24" value="" style="edgeStyle=orthogonalEdgeStyle;rounded=0;orthogonalLoop=1;jettySize=auto;html=1;" edge="1" parent="1" source="PhGM9v6G_7sxKOWtgpyX-19" target="PhGM9v6G_7sxKOWtgpyX-23">
          <mxGeometry relative="1" as="geometry" />
        </mxCell>
        <mxCell id="PhGM9v6G_7sxKOWtgpyX-19" value="Submission of inception report" style="whiteSpace=wrap;html=1;rounded=0;" vertex="1" parent="1">
          <mxGeometry x="290" y="370" width="120" height="60" as="geometry" />
        </mxCell>
        <mxCell id="PhGM9v6G_7sxKOWtgpyX-26" value="" style="edgeStyle=orthogonalEdgeStyle;rounded=0;orthogonalLoop=1;jettySize=auto;html=1;" edge="1" parent="1" source="PhGM9v6G_7sxKOWtgpyX-23" target="PhGM9v6G_7sxKOWtgpyX-25">
          <mxGeometry relative="1" as="geometry" />
        </mxCell>
        <mxCell id="PhGM9v6G_7sxKOWtgpyX-30" value="yes" style="edgeLabel;html=1;align=center;verticalAlign=middle;resizable=0;points=[];" vertex="1" connectable="0" parent="PhGM9v6G_7sxKOWtgpyX-26">
          <mxGeometry x="0.3167" y="9" relative="1" as="geometry">
            <mxPoint x="-19" y="-1" as="offset" />
          </mxGeometry>
        </mxCell>
        <mxCell id="PhGM9v6G_7sxKOWtgpyX-23" value="Report Approved?" style="rhombus;whiteSpace=wrap;html=1;rounded=0;" vertex="1" parent="1">
          <mxGeometry x="310" y="220" width="80" height="80" as="geometry" />
        </mxCell>
        <mxCell id="PhGM9v6G_7sxKOWtgpyX-46" value="" style="edgeStyle=orthogonalEdgeStyle;rounded=0;orthogonalLoop=1;jettySize=auto;html=1;" edge="1" parent="1" source="PhGM9v6G_7sxKOWtgpyX-43" target="PhGM9v6G_7sxKOWtgpyX-45">
          <mxGeometry relative="1" as="geometry" />
        </mxCell>
        <mxCell id="PhGM9v6G_7sxKOWtgpyX-43" value="Contract monitoring and performance evaluation" style="whiteSpace=wrap;html=1;rounded=0;" vertex="1" parent="1">
          <mxGeometry x="1005" y="220" width="120" height="60" as="geometry" />
        </mxCell>
        <mxCell id="PhGM9v6G_7sxKOWtgpyX-44" value="" style="edgeStyle=orthogonalEdgeStyle;rounded=0;orthogonalLoop=1;jettySize=auto;html=1;" edge="1" parent="1" source="PhGM9v6G_7sxKOWtgpyX-41" target="PhGM9v6G_7sxKOWtgpyX-43">
          <mxGeometry relative="1" as="geometry" />
        </mxCell>
        <mxCell id="PhGM9v6G_7sxKOWtgpyX-52" value="" style="edgeStyle=orthogonalEdgeStyle;rounded=0;orthogonalLoop=1;jettySize=auto;html=1;entryX=0.5;entryY=0;entryDx=0;entryDy=0;" edge="1" parent="1" source="PhGM9v6G_7sxKOWtgpyX-45" target="PhGM9v6G_7sxKOWtgpyX-47">
          <mxGeometry relative="1" as="geometry">
            <mxPoint x="1065" y="500" as="targetPoint" />
          </mxGeometry>
        </mxCell>
        <mxCell id="PhGM9v6G_7sxKOWtgpyX-45" value="Approved final report submitted to procurement together with invoice for payment" style="whiteSpace=wrap;html=1;rounded=0;" vertex="1" parent="1">
          <mxGeometry x="990" y="360" width="150" height="60" as="geometry" />
        </mxCell>
        <mxCell id="PhGM9v6G_7sxKOWtgpyX-55" value="" style="endArrow=classic;html=1;exitX=0;exitY=0.5;exitDx=0;exitDy=0;entryX=0;entryY=0.5;entryDx=0;entryDy=0;" edge="1" parent="1" source="PhGM9v6G_7sxKOWtgpyX-23" target="PhGM9v6G_7sxKOWtgpyX-19">
          <mxGeometry width="50" height="50" relative="1" as="geometry">
            <mxPoint x="480" y="500" as="sourcePoint" />
            <mxPoint x="530" y="450" as="targetPoint" />
            <Array as="points">
              <mxPoint x="270" y="260" />
              <mxPoint x="270" y="400" />
            </Array>
          </mxGeometry>
        </mxCell>
      </root>
    </mxGraphModel>
  </diagram>
</mxfile>
